<?xml version="1.0" encoding="utf-8"?>
<!-- Generator: Adobe Illustrator 22.0.1, SVG Export Plug-In . SVG Version: 6.00 Build 0)  -->
<svg version="1.1" id="Calque_1" xmlns="http://www.w3.org/2000/svg" xmlns:xlink="http://www.w3.org/1999/xlink" x="0px" y="0px"
	 viewBox="0 0 285 82.5" style="enable-background:new 0 0 285 82.5;" xml:space="preserve">
<style type="text/css">
	.st0{fill:#757575;}
	.st1{fill:url(#SVGID_1_);}
	.st2{fill:url(#SVGID_2_);}
</style>
<g>
	<path class="st0" d="M15.3,43.7v29.2H6.6v-68h39.7v8.4h-31v22.3h27.9v8.2H15.3z"/>
	<path class="st0" d="M65,10.2c0,1.7-0.6,3.2-1.8,4.4c-1.2,1.2-2.7,1.8-4.4,1.8s-3.2-0.6-4.4-1.8c-1.2-1.2-1.8-2.7-1.8-4.4
		c0-1.7,0.6-3.2,1.8-4.4C55.7,4.6,57.1,4,58.9,4s3.2,0.6,4.4,1.8C64.4,7,65,8.5,65,10.2z M63.2,26.3v46.5h-8.7V26.3H63.2z"/>
	<path class="st0" d="M83.4,72.8h-8.7V26.3H83v7.6h0.4c0.9-2.5,2.7-4.6,5.5-6.3c2.8-1.7,5.5-2.6,8.1-2.6c2.5,0,4.7,0.4,6.5,1.1
		l-2.7,8.5c-1.1-0.4-2.8-0.7-5.1-0.7c-3.3,0-6.2,1.3-8.6,4c-2.4,2.7-3.7,5.8-3.7,9.3V72.8z"/>
	<path class="st0" d="M127.2,74.3c-6.8,0-12.5-2.3-16.9-7c-4.4-4.7-6.7-10.6-6.7-17.8c0-7.1,2.2-13,6.5-17.7
		c4.3-4.7,9.8-7.1,16.5-7.1c6.9,0,12.4,2.2,16.5,6.7c4.1,4.5,6.1,10.7,6.1,18.8l-0.1,1h-36.6c0.1,4.6,1.6,8.2,4.6,11
		c2.9,2.8,6.4,4.2,10.4,4.2c5.6,0,9.9-2.8,13.1-8.4l7.8,3.8c-2.1,3.9-5,7-8.7,9.2C136,73.2,131.8,74.3,127.2,74.3z M113.2,43.9h26.7
		c-0.3-3.2-1.6-5.9-3.9-8c-2.4-2.1-5.6-3.2-9.5-3.2c-3.3,0-6.1,1-8.5,3C115.5,37.8,114,40.5,113.2,43.9z"/>
	<g>
		<g>
			<g>
				<g>
					<linearGradient id="SVGID_1_" gradientUnits="userSpaceOnUse" x1="149.8603" y1="16.5392" x2="275.1936" y2="84.5392">
						<stop  offset="0" style="stop-color:#D2087B"/>
						<stop  offset="1" style="stop-color:#F77BB5"/>
					</linearGradient>
					<path class="st1" d="M205.6,71.3c-2.2,0.9-4.6,1.7-7,2.2c-2.5,0.5-5,0.8-7.7,0.8c-5.1,0-9.8-0.9-14.1-2.8
						c-4.3-1.8-8.1-4.4-11.3-7.6c-3.2-3.2-5.7-7-7.5-11.3c-1.8-4.3-2.7-9-2.7-13.9c0-4.9,0.9-9.6,2.7-13.9c1.8-4.3,4.3-8.1,7.5-11.3
						c3.2-3.2,6.9-5.7,11.3-7.6c4.3-1.8,9-2.8,14.1-2.8c5.1,0,9.8,0.9,14.1,2.8c4.3,1.8,8.1,4.4,11.3,7.6c3.2,3.2,5.7,7,7.5,11.3
						c1.8,4.3,2.7,9,2.7,13.9c0,5.3-1,10.1-2.9,14.6c-2,4.5-4.7,8.4-8.3,11.6l5.2,7.8l-9.5,6.4L205.6,71.3z M191.2,49.6l9.5-6.5
						l7.4,11.2c1.7-2,3.1-4.3,4-6.9c1-2.6,1.5-5.5,1.5-8.7c0-3.5-0.6-6.7-1.8-9.5c-1.2-2.9-2.8-5.3-4.8-7.4c-2.1-2-4.5-3.6-7.2-4.8
						s-5.7-1.7-8.9-1.7c-3.2,0-6.1,0.6-8.9,1.7c-2.8,1.1-5.2,2.7-7.2,4.8c-2.1,2-3.7,4.5-4.8,7.4c-1.2,2.9-1.8,6.1-1.8,9.5
						c0,3.5,0.6,6.7,1.8,9.5c1.2,2.9,2.8,5.3,4.8,7.4c2.1,2,4.5,3.6,7.2,4.8c2.8,1.1,5.7,1.7,8.9,1.7c1.4,0,2.7-0.1,4-0.4
						c1.3-0.3,2.5-0.6,3.7-1L191.2,49.6z"/>
				</g>
			</g>
			<g>
				<g>
					<linearGradient id="SVGID_2_" gradientUnits="userSpaceOnUse" x1="161.7536" y1="-5.3819" x2="287.0869" y2="62.6181">
						<stop  offset="0" style="stop-color:#D2087B"/>
						<stop  offset="1" style="stop-color:#F77BB5"/>
					</linearGradient>
					<path class="st2" d="M236.8,4.8h12.8v55.9h28.8v12.2h-41.6V4.8z"/>
				</g>
			</g>
		</g>
	</g>
</g>
</svg>
